<?xml version="1.0" encoding="utf-8" standalone="no"?>
<!DOCTYPE svg PUBLIC "-//W3C//DTD SVG 1.1//EN"
  "http://www.w3.org/Graphics/SVG/1.1/DTD/svg11.dtd">
<!-- Created with matplotlib (https://matplotlib.org/) -->
<svg height="360pt" version="1.1" viewBox="0 0 576 360" width="576pt" xmlns="http://www.w3.org/2000/svg" xmlns:xlink="http://www.w3.org/1999/xlink">
 <defs>
  <style type="text/css">
*{stroke-linecap:butt;stroke-linejoin:round;}
  </style>
 </defs>
 <g id="figure_1">
  <g id="patch_1">
   <path d="M 0 360 
L 576 360 
L 576 0 
L 0 0 
z
" style="fill:#ffffff;"/>
  </g>
  <g id="axes_1">
   <g id="patch_2">
    <path d="M 72 315 
L 518.4 315 
L 518.4 43.2 
L 72 43.2 
z
" style="fill:#ffffff;"/>
   </g>
   <g id="matplotlib.axis_1">
    <g id="xtick_1">
     <g id="line2d_1">
      <path clip-path="url(#p2b9ca64ab4)" d="M 72 315 
L 72 43.2 
" style="fill:none;stroke:#b0b0b0;stroke-dasharray:2.96,1.28;stroke-dashoffset:0;stroke-opacity:0.5;stroke-width:0.8;"/>
     </g>
     <g id="line2d_2">
      <defs>
       <path d="M 0 0 
L 0 3.5 
" id="ma4f20698bb" style="stroke:#000000;stroke-width:0.8;"/>
      </defs>
      <g>
       <use style="stroke:#000000;stroke-width:0.8;" x="72" xlink:href="#ma4f20698bb" y="315"/>
      </g>
     </g>
     <g id="text_1">
      <!-- −30 -->
      <defs>
       <path d="M 10.59375 35.5 
L 73.1875 35.5 
L 73.1875 27.203125 
L 10.59375 27.203125 
z
" id="DejaVuSans-8722"/>
       <path d="M 40.578125 39.3125 
Q 47.65625 37.796875 51.625 33 
Q 55.609375 28.21875 55.609375 21.1875 
Q 55.609375 10.40625 48.1875 4.484375 
Q 40.765625 -1.421875 27.09375 -1.421875 
Q 22.515625 -1.421875 17.65625 -0.515625 
Q 12.796875 0.390625 7.625 2.203125 
L 7.625 11.71875 
Q 11.71875 9.328125 16.59375 8.109375 
Q 21.484375 6.890625 26.8125 6.890625 
Q 36.078125 6.890625 40.9375 10.546875 
Q 45.796875 14.203125 45.796875 21.1875 
Q 45.796875 27.640625 41.28125 31.265625 
Q 36.765625 34.90625 28.71875 34.90625 
L 20.21875 34.90625 
L 20.21875 43.015625 
L 29.109375 43.015625 
Q 36.375 43.015625 40.234375 45.921875 
Q 44.09375 48.828125 44.09375 54.296875 
Q 44.09375 59.90625 40.109375 62.90625 
Q 36.140625 65.921875 28.71875 65.921875 
Q 24.65625 65.921875 20.015625 65.03125 
Q 15.375 64.15625 9.8125 62.3125 
L 9.8125 71.09375 
Q 15.4375 72.65625 20.34375 73.4375 
Q 25.25 74.21875 29.59375 74.21875 
Q 40.828125 74.21875 47.359375 69.109375 
Q 53.90625 64.015625 53.90625 55.328125 
Q 53.90625 49.265625 50.4375 45.09375 
Q 46.96875 40.921875 40.578125 39.3125 
z
" id="DejaVuSans-51"/>
       <path d="M 31.78125 66.40625 
Q 24.171875 66.40625 20.328125 58.90625 
Q 16.5 51.421875 16.5 36.375 
Q 16.5 21.390625 20.328125 13.890625 
Q 24.171875 6.390625 31.78125 6.390625 
Q 39.453125 6.390625 43.28125 13.890625 
Q 47.125 21.390625 47.125 36.375 
Q 47.125 51.421875 43.28125 58.90625 
Q 39.453125 66.40625 31.78125 66.40625 
z
M 31.78125 74.21875 
Q 44.046875 74.21875 50.515625 64.515625 
Q 56.984375 54.828125 56.984375 36.375 
Q 56.984375 17.96875 50.515625 8.265625 
Q 44.046875 -1.421875 31.78125 -1.421875 
Q 19.53125 -1.421875 13.0625 8.265625 
Q 6.59375 17.96875 6.59375 36.375 
Q 6.59375 54.828125 13.0625 64.515625 
Q 19.53125 74.21875 31.78125 74.21875 
z
" id="DejaVuSans-48"/>
      </defs>
      <g transform="translate(55.11625 334.1575)scale(0.16 -0.16)">
       <use xlink:href="#DejaVuSans-8722"/>
       <use x="83.789062" xlink:href="#DejaVuSans-51"/>
       <use x="147.412109" xlink:href="#DejaVuSans-48"/>
      </g>
     </g>
    </g>
    <g id="xtick_2">
     <g id="line2d_3">
      <path clip-path="url(#p2b9ca64ab4)" d="M 183.6 315 
L 183.6 43.2 
" style="fill:none;stroke:#b0b0b0;stroke-dasharray:2.96,1.28;stroke-dashoffset:0;stroke-opacity:0.5;stroke-width:0.8;"/>
     </g>
     <g id="line2d_4">
      <g>
       <use style="stroke:#000000;stroke-width:0.8;" x="183.6" xlink:href="#ma4f20698bb" y="315"/>
      </g>
     </g>
     <g id="text_2">
      <!-- −25 -->
      <defs>
       <path d="M 19.1875 8.296875 
L 53.609375 8.296875 
L 53.609375 0 
L 7.328125 0 
L 7.328125 8.296875 
Q 12.9375 14.109375 22.625 23.890625 
Q 32.328125 33.6875 34.8125 36.53125 
Q 39.546875 41.84375 41.421875 45.53125 
Q 43.3125 49.21875 43.3125 52.78125 
Q 43.3125 58.59375 39.234375 62.25 
Q 35.15625 65.921875 28.609375 65.921875 
Q 23.96875 65.921875 18.8125 64.3125 
Q 13.671875 62.703125 7.8125 59.421875 
L 7.8125 69.390625 
Q 13.765625 71.78125 18.9375 73 
Q 24.125 74.21875 28.421875 74.21875 
Q 39.75 74.21875 46.484375 68.546875 
Q 53.21875 62.890625 53.21875 53.421875 
Q 53.21875 48.921875 51.53125 44.890625 
Q 49.859375 40.875 45.40625 35.40625 
Q 44.1875 33.984375 37.640625 27.21875 
Q 31.109375 20.453125 19.1875 8.296875 
z
" id="DejaVuSans-50"/>
       <path d="M 10.796875 72.90625 
L 49.515625 72.90625 
L 49.515625 64.59375 
L 19.828125 64.59375 
L 19.828125 46.734375 
Q 21.96875 47.46875 24.109375 47.828125 
Q 26.265625 48.1875 28.421875 48.1875 
Q 40.625 48.1875 47.75 41.5 
Q 54.890625 34.8125 54.890625 23.390625 
Q 54.890625 11.625 47.5625 5.09375 
Q 40.234375 -1.421875 26.90625 -1.421875 
Q 22.3125 -1.421875 17.546875 -0.640625 
Q 12.796875 0.140625 7.71875 1.703125 
L 7.71875 11.625 
Q 12.109375 9.234375 16.796875 8.0625 
Q 21.484375 6.890625 26.703125 6.890625 
Q 35.15625 6.890625 40.078125 11.328125 
Q 45.015625 15.765625 45.015625 23.390625 
Q 45.015625 31 40.078125 35.4375 
Q 35.15625 39.890625 26.703125 39.890625 
Q 22.75 39.890625 18.8125 39.015625 
Q 14.890625 38.140625 10.796875 36.28125 
z
" id="DejaVuSans-53"/>
      </defs>
      <g transform="translate(166.71625 334.1575)scale(0.16 -0.16)">
       <use xlink:href="#DejaVuSans-8722"/>
       <use x="83.789062" xlink:href="#DejaVuSans-50"/>
       <use x="147.412109" xlink:href="#DejaVuSans-53"/>
      </g>
     </g>
    </g>
    <g id="xtick_3">
     <g id="line2d_5">
      <path clip-path="url(#p2b9ca64ab4)" d="M 295.2 315 
L 295.2 43.2 
" style="fill:none;stroke:#b0b0b0;stroke-dasharray:2.96,1.28;stroke-dashoffset:0;stroke-opacity:0.5;stroke-width:0.8;"/>
     </g>
     <g id="line2d_6">
      <g>
       <use style="stroke:#000000;stroke-width:0.8;" x="295.2" xlink:href="#ma4f20698bb" y="315"/>
      </g>
     </g>
     <g id="text_3">
      <!-- −20 -->
      <g transform="translate(278.31625 334.1575)scale(0.16 -0.16)">
       <use xlink:href="#DejaVuSans-8722"/>
       <use x="83.789062" xlink:href="#DejaVuSans-50"/>
       <use x="147.412109" xlink:href="#DejaVuSans-48"/>
      </g>
     </g>
    </g>
    <g id="xtick_4">
     <g id="line2d_7">
      <path clip-path="url(#p2b9ca64ab4)" d="M 406.8 315 
L 406.8 43.2 
" style="fill:none;stroke:#b0b0b0;stroke-dasharray:2.96,1.28;stroke-dashoffset:0;stroke-opacity:0.5;stroke-width:0.8;"/>
     </g>
     <g id="line2d_8">
      <g>
       <use style="stroke:#000000;stroke-width:0.8;" x="406.8" xlink:href="#ma4f20698bb" y="315"/>
      </g>
     </g>
     <g id="text_4">
      <!-- −15 -->
      <defs>
       <path d="M 12.40625 8.296875 
L 28.515625 8.296875 
L 28.515625 63.921875 
L 10.984375 60.40625 
L 10.984375 69.390625 
L 28.421875 72.90625 
L 38.28125 72.90625 
L 38.28125 8.296875 
L 54.390625 8.296875 
L 54.390625 0 
L 12.40625 0 
z
" id="DejaVuSans-49"/>
      </defs>
      <g transform="translate(389.91625 334.1575)scale(0.16 -0.16)">
       <use xlink:href="#DejaVuSans-8722"/>
       <use x="83.789062" xlink:href="#DejaVuSans-49"/>
       <use x="147.412109" xlink:href="#DejaVuSans-53"/>
      </g>
     </g>
    </g>
    <g id="xtick_5">
     <g id="line2d_9">
      <path clip-path="url(#p2b9ca64ab4)" d="M 518.4 315 
L 518.4 43.2 
" style="fill:none;stroke:#b0b0b0;stroke-dasharray:2.96,1.28;stroke-dashoffset:0;stroke-opacity:0.5;stroke-width:0.8;"/>
     </g>
     <g id="line2d_10">
      <g>
       <use style="stroke:#000000;stroke-width:0.8;" x="518.4" xlink:href="#ma4f20698bb" y="315"/>
      </g>
     </g>
     <g id="text_5">
      <!-- −10 -->
      <g transform="translate(501.51625 334.1575)scale(0.16 -0.16)">
       <use xlink:href="#DejaVuSans-8722"/>
       <use x="83.789062" xlink:href="#DejaVuSans-49"/>
       <use x="147.412109" xlink:href="#DejaVuSans-48"/>
      </g>
     </g>
    </g>
    <g id="text_6">
     <!-- SNR (dB) -->
     <defs>
      <path d="M 53.515625 70.515625 
L 53.515625 60.890625 
Q 47.90625 63.578125 42.921875 64.890625 
Q 37.9375 66.21875 33.296875 66.21875 
Q 25.25 66.21875 20.875 63.09375 
Q 16.5 59.96875 16.5 54.203125 
Q 16.5 49.359375 19.40625 46.890625 
Q 22.3125 44.4375 30.421875 42.921875 
L 36.375 41.703125 
Q 47.40625 39.59375 52.65625 34.296875 
Q 57.90625 29 57.90625 20.125 
Q 57.90625 9.515625 50.796875 4.046875 
Q 43.703125 -1.421875 29.984375 -1.421875 
Q 24.8125 -1.421875 18.96875 -0.25 
Q 13.140625 0.921875 6.890625 3.21875 
L 6.890625 13.375 
Q 12.890625 10.015625 18.65625 8.296875 
Q 24.421875 6.59375 29.984375 6.59375 
Q 38.421875 6.59375 43.015625 9.90625 
Q 47.609375 13.234375 47.609375 19.390625 
Q 47.609375 24.75 44.3125 27.78125 
Q 41.015625 30.8125 33.5 32.328125 
L 27.484375 33.5 
Q 16.453125 35.6875 11.515625 40.375 
Q 6.59375 45.0625 6.59375 53.421875 
Q 6.59375 63.09375 13.40625 68.65625 
Q 20.21875 74.21875 32.171875 74.21875 
Q 37.3125 74.21875 42.625 73.28125 
Q 47.953125 72.359375 53.515625 70.515625 
z
" id="DejaVuSans-83"/>
      <path d="M 9.8125 72.90625 
L 23.09375 72.90625 
L 55.421875 11.921875 
L 55.421875 72.90625 
L 64.984375 72.90625 
L 64.984375 0 
L 51.703125 0 
L 19.390625 60.984375 
L 19.390625 0 
L 9.8125 0 
z
" id="DejaVuSans-78"/>
      <path d="M 44.390625 34.1875 
Q 47.5625 33.109375 50.5625 29.59375 
Q 53.5625 26.078125 56.59375 19.921875 
L 66.609375 0 
L 56 0 
L 46.6875 18.703125 
Q 43.0625 26.03125 39.671875 28.421875 
Q 36.28125 30.8125 30.421875 30.8125 
L 19.671875 30.8125 
L 19.671875 0 
L 9.8125 0 
L 9.8125 72.90625 
L 32.078125 72.90625 
Q 44.578125 72.90625 50.734375 67.671875 
Q 56.890625 62.453125 56.890625 51.90625 
Q 56.890625 45.015625 53.6875 40.46875 
Q 50.484375 35.9375 44.390625 34.1875 
z
M 19.671875 64.796875 
L 19.671875 38.921875 
L 32.078125 38.921875 
Q 39.203125 38.921875 42.84375 42.21875 
Q 46.484375 45.515625 46.484375 51.90625 
Q 46.484375 58.296875 42.84375 61.546875 
Q 39.203125 64.796875 32.078125 64.796875 
z
" id="DejaVuSans-82"/>
      <path id="DejaVuSans-32"/>
      <path d="M 31 75.875 
Q 24.46875 64.65625 21.28125 53.65625 
Q 18.109375 42.671875 18.109375 31.390625 
Q 18.109375 20.125 21.3125 9.0625 
Q 24.515625 -2 31 -13.1875 
L 23.1875 -13.1875 
Q 15.875 -1.703125 12.234375 9.375 
Q 8.59375 20.453125 8.59375 31.390625 
Q 8.59375 42.28125 12.203125 53.3125 
Q 15.828125 64.359375 23.1875 75.875 
z
" id="DejaVuSans-40"/>
      <path d="M 45.40625 46.390625 
L 45.40625 75.984375 
L 54.390625 75.984375 
L 54.390625 0 
L 45.40625 0 
L 45.40625 8.203125 
Q 42.578125 3.328125 38.25 0.953125 
Q 33.9375 -1.421875 27.875 -1.421875 
Q 17.96875 -1.421875 11.734375 6.484375 
Q 5.515625 14.40625 5.515625 27.296875 
Q 5.515625 40.1875 11.734375 48.09375 
Q 17.96875 56 27.875 56 
Q 33.9375 56 38.25 53.625 
Q 42.578125 51.265625 45.40625 46.390625 
z
M 14.796875 27.296875 
Q 14.796875 17.390625 18.875 11.75 
Q 22.953125 6.109375 30.078125 6.109375 
Q 37.203125 6.109375 41.296875 11.75 
Q 45.40625 17.390625 45.40625 27.296875 
Q 45.40625 37.203125 41.296875 42.84375 
Q 37.203125 48.484375 30.078125 48.484375 
Q 22.953125 48.484375 18.875 42.84375 
Q 14.796875 37.203125 14.796875 27.296875 
z
" id="DejaVuSans-100"/>
      <path d="M 19.671875 34.8125 
L 19.671875 8.109375 
L 35.5 8.109375 
Q 43.453125 8.109375 47.28125 11.40625 
Q 51.125 14.703125 51.125 21.484375 
Q 51.125 28.328125 47.28125 31.5625 
Q 43.453125 34.8125 35.5 34.8125 
z
M 19.671875 64.796875 
L 19.671875 42.828125 
L 34.28125 42.828125 
Q 41.5 42.828125 45.03125 45.53125 
Q 48.578125 48.25 48.578125 53.8125 
Q 48.578125 59.328125 45.03125 62.0625 
Q 41.5 64.796875 34.28125 64.796875 
z
M 9.8125 72.90625 
L 35.015625 72.90625 
Q 46.296875 72.90625 52.390625 68.21875 
Q 58.5 63.53125 58.5 54.890625 
Q 58.5 48.1875 55.375 44.234375 
Q 52.25 40.28125 46.1875 39.3125 
Q 53.46875 37.75 57.5 32.78125 
Q 61.53125 27.828125 61.53125 20.40625 
Q 61.53125 10.640625 54.890625 5.3125 
Q 48.25 0 35.984375 0 
L 9.8125 0 
z
" id="DejaVuSans-66"/>
      <path d="M 8.015625 75.875 
L 15.828125 75.875 
Q 23.140625 64.359375 26.78125 53.3125 
Q 30.421875 42.28125 30.421875 31.390625 
Q 30.421875 20.453125 26.78125 9.375 
Q 23.140625 -1.703125 15.828125 -13.1875 
L 8.015625 -13.1875 
Q 14.5 -2 17.703125 9.0625 
Q 20.90625 20.125 20.90625 31.390625 
Q 20.90625 42.671875 17.703125 53.65625 
Q 14.5 64.65625 8.015625 75.875 
z
" id="DejaVuSans-41"/>
     </defs>
     <g transform="translate(241.2375 359.72125)scale(0.24 -0.24)">
      <use xlink:href="#DejaVuSans-83"/>
      <use x="63.476562" xlink:href="#DejaVuSans-78"/>
      <use x="138.28125" xlink:href="#DejaVuSans-82"/>
      <use x="207.763672" xlink:href="#DejaVuSans-32"/>
      <use x="239.550781" xlink:href="#DejaVuSans-40"/>
      <use x="278.564453" xlink:href="#DejaVuSans-100"/>
      <use x="342.041016" xlink:href="#DejaVuSans-66"/>
      <use x="410.644531" xlink:href="#DejaVuSans-41"/>
     </g>
    </g>
   </g>
   <g id="matplotlib.axis_2">
    <g id="ytick_1">
     <g id="line2d_11">
      <path clip-path="url(#p2b9ca64ab4)" d="M 72 315 
L 518.4 315 
" style="fill:none;stroke:#b0b0b0;stroke-dasharray:2.96,1.28;stroke-dashoffset:0;stroke-opacity:0.5;stroke-width:0.8;"/>
     </g>
     <g id="line2d_12">
      <defs>
       <path d="M 0 0 
L -3.5 0 
" id="mc6f3a6c1f2" style="stroke:#000000;stroke-width:0.8;"/>
      </defs>
      <g>
       <use style="stroke:#000000;stroke-width:0.8;" x="72" xlink:href="#mc6f3a6c1f2" y="315"/>
      </g>
     </g>
     <g id="text_7">
      <!-- 0 -->
      <g transform="translate(54.82 321.07875)scale(0.16 -0.16)">
       <use xlink:href="#DejaVuSans-48"/>
      </g>
     </g>
    </g>
    <g id="ytick_2">
     <g id="line2d_13">
      <path clip-path="url(#p2b9ca64ab4)" d="M 72 250.285714 
L 518.4 250.285714 
" style="fill:none;stroke:#b0b0b0;stroke-dasharray:2.96,1.28;stroke-dashoffset:0;stroke-opacity:0.5;stroke-width:0.8;"/>
     </g>
     <g id="line2d_14">
      <g>
       <use style="stroke:#000000;stroke-width:0.8;" x="72" xlink:href="#mc6f3a6c1f2" y="250.285714"/>
      </g>
     </g>
     <g id="text_8">
      <!-- 25 -->
      <g transform="translate(44.64 256.364464)scale(0.16 -0.16)">
       <use xlink:href="#DejaVuSans-50"/>
       <use x="63.623047" xlink:href="#DejaVuSans-53"/>
      </g>
     </g>
    </g>
    <g id="ytick_3">
     <g id="line2d_15">
      <path clip-path="url(#p2b9ca64ab4)" d="M 72 185.571429 
L 518.4 185.571429 
" style="fill:none;stroke:#b0b0b0;stroke-dasharray:2.96,1.28;stroke-dashoffset:0;stroke-opacity:0.5;stroke-width:0.8;"/>
     </g>
     <g id="line2d_16">
      <g>
       <use style="stroke:#000000;stroke-width:0.8;" x="72" xlink:href="#mc6f3a6c1f2" y="185.571429"/>
      </g>
     </g>
     <g id="text_9">
      <!-- 50 -->
      <g transform="translate(44.64 191.650179)scale(0.16 -0.16)">
       <use xlink:href="#DejaVuSans-53"/>
       <use x="63.623047" xlink:href="#DejaVuSans-48"/>
      </g>
     </g>
    </g>
    <g id="ytick_4">
     <g id="line2d_17">
      <path clip-path="url(#p2b9ca64ab4)" d="M 72 120.857143 
L 518.4 120.857143 
" style="fill:none;stroke:#b0b0b0;stroke-dasharray:2.96,1.28;stroke-dashoffset:0;stroke-opacity:0.5;stroke-width:0.8;"/>
     </g>
     <g id="line2d_18">
      <g>
       <use style="stroke:#000000;stroke-width:0.8;" x="72" xlink:href="#mc6f3a6c1f2" y="120.857143"/>
      </g>
     </g>
     <g id="text_10">
      <!-- 75 -->
      <defs>
       <path d="M 8.203125 72.90625 
L 55.078125 72.90625 
L 55.078125 68.703125 
L 28.609375 0 
L 18.3125 0 
L 43.21875 64.59375 
L 8.203125 64.59375 
z
" id="DejaVuSans-55"/>
      </defs>
      <g transform="translate(44.64 126.935893)scale(0.16 -0.16)">
       <use xlink:href="#DejaVuSans-55"/>
       <use x="63.623047" xlink:href="#DejaVuSans-53"/>
      </g>
     </g>
    </g>
    <g id="ytick_5">
     <g id="line2d_19">
      <path clip-path="url(#p2b9ca64ab4)" d="M 72 56.142857 
L 518.4 56.142857 
" style="fill:none;stroke:#b0b0b0;stroke-dasharray:2.96,1.28;stroke-dashoffset:0;stroke-opacity:0.5;stroke-width:0.8;"/>
     </g>
     <g id="line2d_20">
      <g>
       <use style="stroke:#000000;stroke-width:0.8;" x="72" xlink:href="#mc6f3a6c1f2" y="56.142857"/>
      </g>
     </g>
     <g id="text_11">
      <!-- 100 -->
      <g transform="translate(34.46 62.221607)scale(0.16 -0.16)">
       <use xlink:href="#DejaVuSans-49"/>
       <use x="63.623047" xlink:href="#DejaVuSans-48"/>
       <use x="127.246094" xlink:href="#DejaVuSans-48"/>
      </g>
     </g>
    </g>
    <g id="text_12">
     <!-- SER (%) -->
     <defs>
      <path d="M 9.8125 72.90625 
L 55.90625 72.90625 
L 55.90625 64.59375 
L 19.671875 64.59375 
L 19.671875 43.015625 
L 54.390625 43.015625 
L 54.390625 34.71875 
L 19.671875 34.71875 
L 19.671875 8.296875 
L 56.78125 8.296875 
L 56.78125 0 
L 9.8125 0 
z
" id="DejaVuSans-69"/>
      <path d="M 72.703125 32.078125 
Q 68.453125 32.078125 66.03125 28.46875 
Q 63.625 24.859375 63.625 18.40625 
Q 63.625 12.0625 66.03125 8.421875 
Q 68.453125 4.78125 72.703125 4.78125 
Q 76.859375 4.78125 79.265625 8.421875 
Q 81.6875 12.0625 81.6875 18.40625 
Q 81.6875 24.8125 79.265625 28.4375 
Q 76.859375 32.078125 72.703125 32.078125 
z
M 72.703125 38.28125 
Q 80.421875 38.28125 84.953125 32.90625 
Q 89.5 27.546875 89.5 18.40625 
Q 89.5 9.28125 84.9375 3.921875 
Q 80.375 -1.421875 72.703125 -1.421875 
Q 64.890625 -1.421875 60.34375 3.921875 
Q 55.8125 9.28125 55.8125 18.40625 
Q 55.8125 27.59375 60.375 32.9375 
Q 64.9375 38.28125 72.703125 38.28125 
z
M 22.3125 68.015625 
Q 18.109375 68.015625 15.6875 64.375 
Q 13.28125 60.75 13.28125 54.390625 
Q 13.28125 47.953125 15.671875 44.328125 
Q 18.0625 40.71875 22.3125 40.71875 
Q 26.5625 40.71875 28.96875 44.328125 
Q 31.390625 47.953125 31.390625 54.390625 
Q 31.390625 60.6875 28.953125 64.34375 
Q 26.515625 68.015625 22.3125 68.015625 
z
M 66.40625 74.21875 
L 74.21875 74.21875 
L 28.609375 -1.421875 
L 20.796875 -1.421875 
z
M 22.3125 74.21875 
Q 30.03125 74.21875 34.609375 68.875 
Q 39.203125 63.53125 39.203125 54.390625 
Q 39.203125 45.171875 34.640625 39.84375 
Q 30.078125 34.515625 22.3125 34.515625 
Q 14.546875 34.515625 10.03125 39.859375 
Q 5.515625 45.21875 5.515625 54.390625 
Q 5.515625 63.484375 10.046875 68.84375 
Q 14.59375 74.21875 22.3125 74.21875 
z
" id="DejaVuSans-37"/>
     </defs>
     <g transform="translate(25.46875 227.218125)rotate(-90)scale(0.24 -0.24)">
      <use xlink:href="#DejaVuSans-83"/>
      <use x="63.476562" xlink:href="#DejaVuSans-69"/>
      <use x="126.660156" xlink:href="#DejaVuSans-82"/>
      <use x="196.142578" xlink:href="#DejaVuSans-32"/>
      <use x="227.929688" xlink:href="#DejaVuSans-40"/>
      <use x="266.943359" xlink:href="#DejaVuSans-37"/>
      <use x="361.962891" xlink:href="#DejaVuSans-41"/>
     </g>
    </g>
   </g>
   <g id="line2d_21">
    <path clip-path="url(#p2b9ca64ab4)" d="M 72 289.114286 
L 518.4 289.114286 
" style="fill:none;stroke:#000000;stroke-dasharray:5.55,2.4;stroke-dashoffset:0;stroke-opacity:0.8;stroke-width:1.5;"/>
   </g>
   <g id="line2d_22">
    <path clip-path="url(#p2b9ca64ab4)" d="M 72 99.692206 
L 94.32 121.531466 
L 116.64 156.522998 
L 138.96 201.567765 
L 161.28 241.973035 
L 183.6 274.99104 
L 205.92 293.827039 
L 228.24 299.895168 
L 250.56 306.212318 
L 272.88 307.810502 
L 295.2 311.81321 
L 317.52 311.571178 
L 339.84 312.93665 
L 362.16 313.615114 
L 384.48 314.329042 
L 406.8 314.98421 
L 429.12 314.673581 
L 451.44 314.836661 
L 473.76 315 
L 496.08 315 
L 518.4 315 
" style="fill:none;stroke:#5d4037;stroke-dasharray:4,6.6;stroke-dashoffset:0;stroke-width:4;"/>
    <defs>
     <path d="M 0 -4 
L -4 4 
L 4 4 
z
" id="md01572cbca" style="stroke:#5d4037;stroke-linejoin:miter;stroke-width:3;"/>
    </defs>
    <g clip-path="url(#p2b9ca64ab4)">
     <use style="fill:#cba580;stroke:#5d4037;stroke-linejoin:miter;stroke-width:3;" x="72" xlink:href="#md01572cbca" y="99.692206"/>
     <use style="fill:#cba580;stroke:#5d4037;stroke-linejoin:miter;stroke-width:3;" x="94.32" xlink:href="#md01572cbca" y="121.531466"/>
     <use style="fill:#cba580;stroke:#5d4037;stroke-linejoin:miter;stroke-width:3;" x="116.64" xlink:href="#md01572cbca" y="156.522998"/>
     <use style="fill:#cba580;stroke:#5d4037;stroke-linejoin:miter;stroke-width:3;" x="138.96" xlink:href="#md01572cbca" y="201.567765"/>
     <use style="fill:#cba580;stroke:#5d4037;stroke-linejoin:miter;stroke-width:3;" x="161.28" xlink:href="#md01572cbca" y="241.973035"/>
     <use style="fill:#cba580;stroke:#5d4037;stroke-linejoin:miter;stroke-width:3;" x="183.6" xlink:href="#md01572cbca" y="274.99104"/>
     <use style="fill:#cba580;stroke:#5d4037;stroke-linejoin:miter;stroke-width:3;" x="205.92" xlink:href="#md01572cbca" y="293.827039"/>
     <use style="fill:#cba580;stroke:#5d4037;stroke-linejoin:miter;stroke-width:3;" x="228.24" xlink:href="#md01572cbca" y="299.895168"/>
     <use style="fill:#cba580;stroke:#5d4037;stroke-linejoin:miter;stroke-width:3;" x="250.56" xlink:href="#md01572cbca" y="306.212318"/>
     <use style="fill:#cba580;stroke:#5d4037;stroke-linejoin:miter;stroke-width:3;" x="272.88" xlink:href="#md01572cbca" y="307.810502"/>
     <use style="fill:#cba580;stroke:#5d4037;stroke-linejoin:miter;stroke-width:3;" x="295.2" xlink:href="#md01572cbca" y="311.81321"/>
     <use style="fill:#cba580;stroke:#5d4037;stroke-linejoin:miter;stroke-width:3;" x="317.52" xlink:href="#md01572cbca" y="311.571178"/>
     <use style="fill:#cba580;stroke:#5d4037;stroke-linejoin:miter;stroke-width:3;" x="339.84" xlink:href="#md01572cbca" y="312.93665"/>
     <use style="fill:#cba580;stroke:#5d4037;stroke-linejoin:miter;stroke-width:3;" x="362.16" xlink:href="#md01572cbca" y="313.615114"/>
     <use style="fill:#cba580;stroke:#5d4037;stroke-linejoin:miter;stroke-width:3;" x="384.48" xlink:href="#md01572cbca" y="314.329042"/>
     <use style="fill:#cba580;stroke:#5d4037;stroke-linejoin:miter;stroke-width:3;" x="406.8" xlink:href="#md01572cbca" y="314.98421"/>
     <use style="fill:#cba580;stroke:#5d4037;stroke-linejoin:miter;stroke-width:3;" x="429.12" xlink:href="#md01572cbca" y="314.673581"/>
     <use style="fill:#cba580;stroke:#5d4037;stroke-linejoin:miter;stroke-width:3;" x="451.44" xlink:href="#md01572cbca" y="314.836661"/>
     <use style="fill:#cba580;stroke:#5d4037;stroke-linejoin:miter;stroke-width:3;" x="473.76" xlink:href="#md01572cbca" y="315"/>
     <use style="fill:#cba580;stroke:#5d4037;stroke-linejoin:miter;stroke-width:3;" x="496.08" xlink:href="#md01572cbca" y="315"/>
     <use style="fill:#cba580;stroke:#5d4037;stroke-linejoin:miter;stroke-width:3;" x="518.4" xlink:href="#md01572cbca" y="315"/>
    </g>
   </g>
   <g id="line2d_23">
    <path clip-path="url(#p2b9ca64ab4)" d="M 72 62.961413 
L 94.32 66.706299 
L 116.64 73.904599 
L 138.96 86.013418 
L 161.28 111.862634 
L 183.6 150.504569 
L 205.92 204.235546 
L 228.24 249.927974 
L 250.56 285.943027 
L 272.88 298.735747 
L 295.2 305.892629 
L 317.52 308.194128 
L 339.84 310.133745 
L 362.16 312.374153 
L 384.48 312.052911 
L 406.8 313.255821 
L 429.12 313.681382 
L 451.44 312.50617 
L 473.76 313.415535 
L 496.08 311.528467 
L 518.4 313.775347 
" style="fill:none;stroke:#ffa500;stroke-dasharray:14.8,6.4;stroke-dashoffset:0;stroke-width:4;"/>
    <defs>
     <path d="M -0 4.242641 
L 2.545584 0 
L 0 -4.242641 
L -2.545584 -0 
z
" id="m0ad854ac7e" style="stroke:#ffa500;stroke-linejoin:miter;stroke-width:3;"/>
    </defs>
    <g clip-path="url(#p2b9ca64ab4)">
     <use style="fill:#f57c00;stroke:#ffa500;stroke-linejoin:miter;stroke-width:3;" x="72" xlink:href="#m0ad854ac7e" y="62.961413"/>
     <use style="fill:#f57c00;stroke:#ffa500;stroke-linejoin:miter;stroke-width:3;" x="94.32" xlink:href="#m0ad854ac7e" y="66.706299"/>
     <use style="fill:#f57c00;stroke:#ffa500;stroke-linejoin:miter;stroke-width:3;" x="116.64" xlink:href="#m0ad854ac7e" y="73.904599"/>
     <use style="fill:#f57c00;stroke:#ffa500;stroke-linejoin:miter;stroke-width:3;" x="138.96" xlink:href="#m0ad854ac7e" y="86.013418"/>
     <use style="fill:#f57c00;stroke:#ffa500;stroke-linejoin:miter;stroke-width:3;" x="161.28" xlink:href="#m0ad854ac7e" y="111.862634"/>
     <use style="fill:#f57c00;stroke:#ffa500;stroke-linejoin:miter;stroke-width:3;" x="183.6" xlink:href="#m0ad854ac7e" y="150.504569"/>
     <use style="fill:#f57c00;stroke:#ffa500;stroke-linejoin:miter;stroke-width:3;" x="205.92" xlink:href="#m0ad854ac7e" y="204.235546"/>
     <use style="fill:#f57c00;stroke:#ffa500;stroke-linejoin:miter;stroke-width:3;" x="228.24" xlink:href="#m0ad854ac7e" y="249.927974"/>
     <use style="fill:#f57c00;stroke:#ffa500;stroke-linejoin:miter;stroke-width:3;" x="250.56" xlink:href="#m0ad854ac7e" y="285.943027"/>
     <use style="fill:#f57c00;stroke:#ffa500;stroke-linejoin:miter;stroke-width:3;" x="272.88" xlink:href="#m0ad854ac7e" y="298.735747"/>
     <use style="fill:#f57c00;stroke:#ffa500;stroke-linejoin:miter;stroke-width:3;" x="295.2" xlink:href="#m0ad854ac7e" y="305.892629"/>
     <use style="fill:#f57c00;stroke:#ffa500;stroke-linejoin:miter;stroke-width:3;" x="317.52" xlink:href="#m0ad854ac7e" y="308.194128"/>
     <use style="fill:#f57c00;stroke:#ffa500;stroke-linejoin:miter;stroke-width:3;" x="339.84" xlink:href="#m0ad854ac7e" y="310.133745"/>
     <use style="fill:#f57c00;stroke:#ffa500;stroke-linejoin:miter;stroke-width:3;" x="362.16" xlink:href="#m0ad854ac7e" y="312.374153"/>
     <use style="fill:#f57c00;stroke:#ffa500;stroke-linejoin:miter;stroke-width:3;" x="384.48" xlink:href="#m0ad854ac7e" y="312.052911"/>
     <use style="fill:#f57c00;stroke:#ffa500;stroke-linejoin:miter;stroke-width:3;" x="406.8" xlink:href="#m0ad854ac7e" y="313.255821"/>
     <use style="fill:#f57c00;stroke:#ffa500;stroke-linejoin:miter;stroke-width:3;" x="429.12" xlink:href="#m0ad854ac7e" y="313.681382"/>
     <use style="fill:#f57c00;stroke:#ffa500;stroke-linejoin:miter;stroke-width:3;" x="451.44" xlink:href="#m0ad854ac7e" y="312.50617"/>
     <use style="fill:#f57c00;stroke:#ffa500;stroke-linejoin:miter;stroke-width:3;" x="473.76" xlink:href="#m0ad854ac7e" y="313.415535"/>
     <use style="fill:#f57c00;stroke:#ffa500;stroke-linejoin:miter;stroke-width:3;" x="496.08" xlink:href="#m0ad854ac7e" y="311.528467"/>
     <use style="fill:#f57c00;stroke:#ffa500;stroke-linejoin:miter;stroke-width:3;" x="518.4" xlink:href="#m0ad854ac7e" y="313.775347"/>
    </g>
   </g>
   <g id="line2d_24">
    <path clip-path="url(#p2b9ca64ab4)" d="M 72 144.705526 
L 94.32 167.839809 
L 116.64 196.501968 
L 138.96 229.555055 
L 161.28 262.626368 
L 183.6 279.271159 
L 205.92 290.182373 
L 228.24 294.443641 
L 250.56 295.475105 
L 272.88 295.366366 
L 295.2 295.55975 
L 317.52 295.608855 
L 339.84 295.609419 
L 362.16 295.451504 
L 384.48 295.48118 
L 406.8 295.533111 
L 429.12 295.562787 
L 451.44 295.562787 
L 473.76 295.644394 
L 496.08 295.780405 
L 518.4 295.780405 
" style="fill:none;stroke:#ff8c00;stroke-dasharray:14.8,6.4;stroke-dashoffset:0;stroke-width:4;"/>
    <defs>
     <path d="M -3 3 
L 3 3 
L 3 -3 
L -3 -3 
z
" id="m0d08d1c67a" style="stroke:#ff8c00;stroke-linejoin:miter;stroke-width:3;"/>
    </defs>
    <g clip-path="url(#p2b9ca64ab4)">
     <use style="fill:#f57c00;stroke:#ff8c00;stroke-linejoin:miter;stroke-width:3;" x="72" xlink:href="#m0d08d1c67a" y="144.705526"/>
     <use style="fill:#f57c00;stroke:#ff8c00;stroke-linejoin:miter;stroke-width:3;" x="94.32" xlink:href="#m0d08d1c67a" y="167.839809"/>
     <use style="fill:#f57c00;stroke:#ff8c00;stroke-linejoin:miter;stroke-width:3;" x="116.64" xlink:href="#m0d08d1c67a" y="196.501968"/>
     <use style="fill:#f57c00;stroke:#ff8c00;stroke-linejoin:miter;stroke-width:3;" x="138.96" xlink:href="#m0d08d1c67a" y="229.555055"/>
     <use style="fill:#f57c00;stroke:#ff8c00;stroke-linejoin:miter;stroke-width:3;" x="161.28" xlink:href="#m0d08d1c67a" y="262.626368"/>
     <use style="fill:#f57c00;stroke:#ff8c00;stroke-linejoin:miter;stroke-width:3;" x="183.6" xlink:href="#m0d08d1c67a" y="279.271159"/>
     <use style="fill:#f57c00;stroke:#ff8c00;stroke-linejoin:miter;stroke-width:3;" x="205.92" xlink:href="#m0d08d1c67a" y="290.182373"/>
     <use style="fill:#f57c00;stroke:#ff8c00;stroke-linejoin:miter;stroke-width:3;" x="228.24" xlink:href="#m0d08d1c67a" y="294.443641"/>
     <use style="fill:#f57c00;stroke:#ff8c00;stroke-linejoin:miter;stroke-width:3;" x="250.56" xlink:href="#m0d08d1c67a" y="295.475105"/>
     <use style="fill:#f57c00;stroke:#ff8c00;stroke-linejoin:miter;stroke-width:3;" x="272.88" xlink:href="#m0d08d1c67a" y="295.366366"/>
     <use style="fill:#f57c00;stroke:#ff8c00;stroke-linejoin:miter;stroke-width:3;" x="295.2" xlink:href="#m0d08d1c67a" y="295.55975"/>
     <use style="fill:#f57c00;stroke:#ff8c00;stroke-linejoin:miter;stroke-width:3;" x="317.52" xlink:href="#m0d08d1c67a" y="295.608855"/>
     <use style="fill:#f57c00;stroke:#ff8c00;stroke-linejoin:miter;stroke-width:3;" x="339.84" xlink:href="#m0d08d1c67a" y="295.609419"/>
     <use style="fill:#f57c00;stroke:#ff8c00;stroke-linejoin:miter;stroke-width:3;" x="362.16" xlink:href="#m0d08d1c67a" y="295.451504"/>
     <use style="fill:#f57c00;stroke:#ff8c00;stroke-linejoin:miter;stroke-width:3;" x="384.48" xlink:href="#m0d08d1c67a" y="295.48118"/>
     <use style="fill:#f57c00;stroke:#ff8c00;stroke-linejoin:miter;stroke-width:3;" x="406.8" xlink:href="#m0d08d1c67a" y="295.533111"/>
     <use style="fill:#f57c00;stroke:#ff8c00;stroke-linejoin:miter;stroke-width:3;" x="429.12" xlink:href="#m0d08d1c67a" y="295.562787"/>
     <use style="fill:#f57c00;stroke:#ff8c00;stroke-linejoin:miter;stroke-width:3;" x="451.44" xlink:href="#m0d08d1c67a" y="295.562787"/>
     <use style="fill:#f57c00;stroke:#ff8c00;stroke-linejoin:miter;stroke-width:3;" x="473.76" xlink:href="#m0d08d1c67a" y="295.644394"/>
     <use style="fill:#f57c00;stroke:#ff8c00;stroke-linejoin:miter;stroke-width:3;" x="496.08" xlink:href="#m0d08d1c67a" y="295.780405"/>
     <use style="fill:#f57c00;stroke:#ff8c00;stroke-linejoin:miter;stroke-width:3;" x="518.4" xlink:href="#m0d08d1c67a" y="295.780405"/>
    </g>
   </g>
   <g id="line2d_25">
    <path clip-path="url(#p2b9ca64ab4)" d="M 72 155.393002 
L 94.32 183.040593 
L 116.64 220.168143 
L 138.96 248.608889 
L 161.28 275.772162 
L 183.6 288.083694 
L 205.92 294.666985 
L 228.24 296.767946 
L 250.56 297.953734 
L 272.88 298.055536 
L 295.2 298.147692 
L 317.52 298.277272 
L 339.84 298.22667 
L 362.16 298.417086 
L 384.48 298.5803 
L 406.8 298.145063 
L 429.12 298.063456 
L 451.44 298.145063 
L 473.76 298.253872 
L 496.08 298.417086 
L 518.4 298.47149 
" style="fill:none;stroke:#d32f2f;stroke-linecap:square;stroke-width:4;"/>
    <defs>
     <path d="M 0 4 
C 1.060812 4 2.078319 3.578535 2.828427 2.828427 
C 3.578535 2.078319 4 1.060812 4 0 
C 4 -1.060812 3.578535 -2.078319 2.828427 -2.828427 
C 2.078319 -3.578535 1.060812 -4 0 -4 
C -1.060812 -4 -2.078319 -3.578535 -2.828427 -2.828427 
C -3.578535 -2.078319 -4 -1.060812 -4 0 
C -4 1.060812 -3.578535 2.078319 -2.828427 2.828427 
C -2.078319 3.578535 -1.060812 4 0 4 
z
" id="m067ecbfbf4" style="stroke:#d32f2f;stroke-width:3;"/>
    </defs>
    <g clip-path="url(#p2b9ca64ab4)">
     <use style="fill:#ffcdd2;stroke:#d32f2f;stroke-width:3;" x="72" xlink:href="#m067ecbfbf4" y="155.393002"/>
     <use style="fill:#ffcdd2;stroke:#d32f2f;stroke-width:3;" x="94.32" xlink:href="#m067ecbfbf4" y="183.040593"/>
     <use style="fill:#ffcdd2;stroke:#d32f2f;stroke-width:3;" x="116.64" xlink:href="#m067ecbfbf4" y="220.168143"/>
     <use style="fill:#ffcdd2;stroke:#d32f2f;stroke-width:3;" x="138.96" xlink:href="#m067ecbfbf4" y="248.608889"/>
     <use style="fill:#ffcdd2;stroke:#d32f2f;stroke-width:3;" x="161.28" xlink:href="#m067ecbfbf4" y="275.772162"/>
     <use style="fill:#ffcdd2;stroke:#d32f2f;stroke-width:3;" x="183.6" xlink:href="#m067ecbfbf4" y="288.083694"/>
     <use style="fill:#ffcdd2;stroke:#d32f2f;stroke-width:3;" x="205.92" xlink:href="#m067ecbfbf4" y="294.666985"/>
     <use style="fill:#ffcdd2;stroke:#d32f2f;stroke-width:3;" x="228.24" xlink:href="#m067ecbfbf4" y="296.767946"/>
     <use style="fill:#ffcdd2;stroke:#d32f2f;stroke-width:3;" x="250.56" xlink:href="#m067ecbfbf4" y="297.953734"/>
     <use style="fill:#ffcdd2;stroke:#d32f2f;stroke-width:3;" x="272.88" xlink:href="#m067ecbfbf4" y="298.055536"/>
     <use style="fill:#ffcdd2;stroke:#d32f2f;stroke-width:3;" x="295.2" xlink:href="#m067ecbfbf4" y="298.147692"/>
     <use style="fill:#ffcdd2;stroke:#d32f2f;stroke-width:3;" x="317.52" xlink:href="#m067ecbfbf4" y="298.277272"/>
     <use style="fill:#ffcdd2;stroke:#d32f2f;stroke-width:3;" x="339.84" xlink:href="#m067ecbfbf4" y="298.22667"/>
     <use style="fill:#ffcdd2;stroke:#d32f2f;stroke-width:3;" x="362.16" xlink:href="#m067ecbfbf4" y="298.417086"/>
     <use style="fill:#ffcdd2;stroke:#d32f2f;stroke-width:3;" x="384.48" xlink:href="#m067ecbfbf4" y="298.5803"/>
     <use style="fill:#ffcdd2;stroke:#d32f2f;stroke-width:3;" x="406.8" xlink:href="#m067ecbfbf4" y="298.145063"/>
     <use style="fill:#ffcdd2;stroke:#d32f2f;stroke-width:3;" x="429.12" xlink:href="#m067ecbfbf4" y="298.063456"/>
     <use style="fill:#ffcdd2;stroke:#d32f2f;stroke-width:3;" x="451.44" xlink:href="#m067ecbfbf4" y="298.145063"/>
     <use style="fill:#ffcdd2;stroke:#d32f2f;stroke-width:3;" x="473.76" xlink:href="#m067ecbfbf4" y="298.253872"/>
     <use style="fill:#ffcdd2;stroke:#d32f2f;stroke-width:3;" x="496.08" xlink:href="#m067ecbfbf4" y="298.417086"/>
     <use style="fill:#ffcdd2;stroke:#d32f2f;stroke-width:3;" x="518.4" xlink:href="#m067ecbfbf4" y="298.47149"/>
    </g>
   </g>
   <g id="patch_3">
    <path d="M 72 315 
L 72 43.2 
" style="fill:none;stroke:#000000;stroke-linecap:square;stroke-linejoin:miter;stroke-width:0.8;"/>
   </g>
   <g id="patch_4">
    <path d="M 518.4 315 
L 518.4 43.2 
" style="fill:none;stroke:#000000;stroke-linecap:square;stroke-linejoin:miter;stroke-width:0.8;"/>
   </g>
   <g id="patch_5">
    <path d="M 72 315 
L 518.4 315 
" style="fill:none;stroke:#000000;stroke-linecap:square;stroke-linejoin:miter;stroke-width:0.8;"/>
   </g>
   <g id="patch_6">
    <path d="M 72 43.2 
L 518.4 43.2 
" style="fill:none;stroke:#000000;stroke-linecap:square;stroke-linejoin:miter;stroke-width:0.8;"/>
   </g>
   <g id="text_13">
    <!-- SER=10% -->
    <defs>
     <path d="M 59.90625 70.609375 
L 59.90625 55.171875 
Q 53.90625 57.859375 48.1875 59.21875 
Q 42.484375 60.59375 37.40625 60.59375 
Q 30.671875 60.59375 27.4375 58.734375 
Q 24.21875 56.890625 24.21875 52.984375 
Q 24.21875 50.046875 26.390625 48.40625 
Q 28.5625 46.78125 34.28125 45.609375 
L 42.28125 44 
Q 54.4375 41.546875 59.5625 36.5625 
Q 64.703125 31.59375 64.703125 22.40625 
Q 64.703125 10.359375 57.546875 4.46875 
Q 50.390625 -1.421875 35.6875 -1.421875 
Q 28.765625 -1.421875 21.78125 -0.09375 
Q 14.796875 1.21875 7.8125 3.8125 
L 7.8125 19.671875 
Q 14.796875 15.96875 21.3125 14.078125 
Q 27.828125 12.203125 33.890625 12.203125 
Q 40.046875 12.203125 43.3125 14.25 
Q 46.578125 16.3125 46.578125 20.125 
Q 46.578125 23.53125 44.359375 25.390625 
Q 42.140625 27.25 35.5 28.71875 
L 28.21875 30.328125 
Q 17.28125 32.671875 12.21875 37.796875 
Q 7.171875 42.921875 7.171875 51.609375 
Q 7.171875 62.5 14.203125 68.359375 
Q 21.234375 74.21875 34.421875 74.21875 
Q 40.4375 74.21875 46.78125 73.3125 
Q 53.125 72.40625 59.90625 70.609375 
z
" id="DejaVuSans-Bold-83"/>
     <path d="M 9.1875 72.90625 
L 59.90625 72.90625 
L 59.90625 58.6875 
L 27.984375 58.6875 
L 27.984375 45.125 
L 58.015625 45.125 
L 58.015625 30.90625 
L 27.984375 30.90625 
L 27.984375 14.203125 
L 60.984375 14.203125 
L 60.984375 0 
L 9.1875 0 
z
" id="DejaVuSans-Bold-69"/>
     <path d="M 35.890625 40.578125 
Q 41.796875 40.578125 44.359375 42.765625 
Q 46.921875 44.96875 46.921875 50 
Q 46.921875 54.984375 44.359375 57.125 
Q 41.796875 59.28125 35.890625 59.28125 
L 27.984375 59.28125 
L 27.984375 40.578125 
z
M 27.984375 27.59375 
L 27.984375 0 
L 9.1875 0 
L 9.1875 72.90625 
L 37.890625 72.90625 
Q 52.296875 72.90625 59 68.0625 
Q 65.71875 63.234375 65.71875 52.78125 
Q 65.71875 45.5625 62.21875 40.921875 
Q 58.734375 36.28125 51.703125 34.078125 
Q 55.5625 33.203125 58.609375 30.09375 
Q 61.671875 27 64.796875 20.703125 
L 75 0 
L 54.984375 0 
L 46.09375 18.109375 
Q 43.40625 23.578125 40.640625 25.578125 
Q 37.890625 27.59375 33.296875 27.59375 
z
" id="DejaVuSans-Bold-82"/>
     <path d="M 10.59375 48.1875 
L 73.1875 48.1875 
L 73.1875 36.71875 
L 10.59375 36.71875 
z
M 10.59375 25.984375 
L 73.1875 25.984375 
L 73.1875 14.40625 
L 10.59375 14.40625 
z
" id="DejaVuSans-Bold-61"/>
     <path d="M 11.71875 12.984375 
L 28.328125 12.984375 
L 28.328125 60.109375 
L 11.28125 56.59375 
L 11.28125 69.390625 
L 28.21875 72.90625 
L 46.09375 72.90625 
L 46.09375 12.984375 
L 62.703125 12.984375 
L 62.703125 0 
L 11.71875 0 
z
" id="DejaVuSans-Bold-49"/>
     <path d="M 46 36.53125 
Q 46 50.203125 43.4375 55.78125 
Q 40.875 61.375 34.8125 61.375 
Q 28.765625 61.375 26.171875 55.78125 
Q 23.578125 50.203125 23.578125 36.53125 
Q 23.578125 22.703125 26.171875 17.03125 
Q 28.765625 11.375 34.8125 11.375 
Q 40.828125 11.375 43.40625 17.03125 
Q 46 22.703125 46 36.53125 
z
M 64.796875 36.375 
Q 64.796875 18.265625 56.984375 8.421875 
Q 49.171875 -1.421875 34.8125 -1.421875 
Q 20.40625 -1.421875 12.59375 8.421875 
Q 4.78125 18.265625 4.78125 36.375 
Q 4.78125 54.546875 12.59375 64.375 
Q 20.40625 74.21875 34.8125 74.21875 
Q 49.171875 74.21875 56.984375 64.375 
Q 64.796875 54.546875 64.796875 36.375 
z
" id="DejaVuSans-Bold-48"/>
     <path d="M 77.484375 30.078125 
Q 74.03125 30.078125 72.125 27.078125 
Q 70.21875 24.078125 70.21875 18.5 
Q 70.21875 12.890625 72.09375 9.890625 
Q 73.96875 6.890625 77.484375 6.890625 
Q 81 6.890625 82.859375 9.890625 
Q 84.71875 12.890625 84.71875 18.5 
Q 84.71875 24.078125 82.828125 27.078125 
Q 80.953125 30.078125 77.484375 30.078125 
z
M 77.484375 38.28125 
Q 86.578125 38.28125 91.796875 33 
Q 97.015625 27.734375 97.015625 18.5 
Q 97.015625 9.28125 91.796875 3.921875 
Q 86.578125 -1.421875 77.484375 -1.421875 
Q 68.40625 -1.421875 63.15625 3.921875 
Q 57.90625 9.28125 57.90625 18.5 
Q 57.90625 27.6875 63.15625 32.984375 
Q 68.40625 38.28125 77.484375 38.28125 
z
M 32.71875 -1.421875 
L 21.921875 -1.421875 
L 67.484375 74.21875 
L 78.328125 74.21875 
z
M 22.703125 74.21875 
Q 31.78125 74.21875 36.984375 68.921875 
Q 42.1875 63.625 42.1875 54.390625 
Q 42.1875 45.171875 36.984375 39.84375 
Q 31.78125 34.515625 22.703125 34.515625 
Q 13.625 34.515625 8.421875 39.84375 
Q 3.21875 45.171875 3.21875 54.390625 
Q 3.21875 63.625 8.421875 68.921875 
Q 13.625 74.21875 22.703125 74.21875 
z
M 22.703125 66.015625 
Q 19.1875 66.015625 17.28125 62.984375 
Q 15.375 59.96875 15.375 54.390625 
Q 15.375 48.78125 17.28125 45.71875 
Q 19.1875 42.671875 22.703125 42.671875 
Q 26.21875 42.671875 28.09375 45.71875 
Q 29.984375 48.78125 29.984375 54.390625 
Q 29.984375 59.96875 28.078125 62.984375 
Q 26.171875 66.015625 22.703125 66.015625 
z
" id="DejaVuSans-Bold-37"/>
    </defs>
    <g transform="translate(72 283.937143)scale(0.18 -0.18)">
     <use xlink:href="#DejaVuSans-Bold-83"/>
     <use x="72.021484" xlink:href="#DejaVuSans-Bold-69"/>
     <use x="140.332031" xlink:href="#DejaVuSans-Bold-82"/>
     <use x="217.333984" xlink:href="#DejaVuSans-Bold-61"/>
     <use x="301.123047" xlink:href="#DejaVuSans-Bold-49"/>
     <use x="370.703125" xlink:href="#DejaVuSans-Bold-48"/>
     <use x="440.283203" xlink:href="#DejaVuSans-Bold-37"/>
    </g>
   </g>
   <g id="legend_1">
    <g id="patch_7">
     <path d="M 297.57375 203.31 
L 501.6 203.31 
Q 506.4 203.31 506.4 198.51 
L 506.4 60 
Q 506.4 55.2 501.6 55.2 
L 297.57375 55.2 
Q 292.77375 55.2 292.77375 60 
L 292.77375 198.51 
Q 292.77375 203.31 297.57375 203.31 
z
" style="fill:#ffffff;opacity:0.8;stroke:#cccccc;stroke-linejoin:miter;"/>
    </g>
    <g id="line2d_26">
     <path d="M 302.37375 74.63625 
L 350.37375 74.63625 
" style="fill:none;stroke:#5d4037;stroke-dasharray:4,6.6;stroke-dashoffset:0;stroke-width:4;"/>
    </g>
    <g id="line2d_27">
     <g>
      <use style="fill:#cba580;stroke:#5d4037;stroke-linejoin:miter;stroke-width:3;" x="326.37375" xlink:href="#md01572cbca" y="74.63625"/>
     </g>
    </g>
    <g id="text_14">
     <!-- LoRaPHY -->
     <defs>
      <path d="M 9.8125 72.90625 
L 19.671875 72.90625 
L 19.671875 8.296875 
L 55.171875 8.296875 
L 55.171875 0 
L 9.8125 0 
z
" id="DejaVuSans-76"/>
      <path d="M 30.609375 48.390625 
Q 23.390625 48.390625 19.1875 42.75 
Q 14.984375 37.109375 14.984375 27.296875 
Q 14.984375 17.484375 19.15625 11.84375 
Q 23.34375 6.203125 30.609375 6.203125 
Q 37.796875 6.203125 41.984375 11.859375 
Q 46.1875 17.53125 46.1875 27.296875 
Q 46.1875 37.015625 41.984375 42.703125 
Q 37.796875 48.390625 30.609375 48.390625 
z
M 30.609375 56 
Q 42.328125 56 49.015625 48.375 
Q 55.71875 40.765625 55.71875 27.296875 
Q 55.71875 13.875 49.015625 6.21875 
Q 42.328125 -1.421875 30.609375 -1.421875 
Q 18.84375 -1.421875 12.171875 6.21875 
Q 5.515625 13.875 5.515625 27.296875 
Q 5.515625 40.765625 12.171875 48.375 
Q 18.84375 56 30.609375 56 
z
" id="DejaVuSans-111"/>
      <path d="M 34.28125 27.484375 
Q 23.390625 27.484375 19.1875 25 
Q 14.984375 22.515625 14.984375 16.5 
Q 14.984375 11.71875 18.140625 8.90625 
Q 21.296875 6.109375 26.703125 6.109375 
Q 34.1875 6.109375 38.703125 11.40625 
Q 43.21875 16.703125 43.21875 25.484375 
L 43.21875 27.484375 
z
M 52.203125 31.203125 
L 52.203125 0 
L 43.21875 0 
L 43.21875 8.296875 
Q 40.140625 3.328125 35.546875 0.953125 
Q 30.953125 -1.421875 24.3125 -1.421875 
Q 15.921875 -1.421875 10.953125 3.296875 
Q 6 8.015625 6 15.921875 
Q 6 25.140625 12.171875 29.828125 
Q 18.359375 34.515625 30.609375 34.515625 
L 43.21875 34.515625 
L 43.21875 35.40625 
Q 43.21875 41.609375 39.140625 45 
Q 35.0625 48.390625 27.6875 48.390625 
Q 23 48.390625 18.546875 47.265625 
Q 14.109375 46.140625 10.015625 43.890625 
L 10.015625 52.203125 
Q 14.9375 54.109375 19.578125 55.046875 
Q 24.21875 56 28.609375 56 
Q 40.484375 56 46.34375 49.84375 
Q 52.203125 43.703125 52.203125 31.203125 
z
" id="DejaVuSans-97"/>
      <path d="M 19.671875 64.796875 
L 19.671875 37.40625 
L 32.078125 37.40625 
Q 38.96875 37.40625 42.71875 40.96875 
Q 46.484375 44.53125 46.484375 51.125 
Q 46.484375 57.671875 42.71875 61.234375 
Q 38.96875 64.796875 32.078125 64.796875 
z
M 9.8125 72.90625 
L 32.078125 72.90625 
Q 44.34375 72.90625 50.609375 67.359375 
Q 56.890625 61.8125 56.890625 51.125 
Q 56.890625 40.328125 50.609375 34.8125 
Q 44.34375 29.296875 32.078125 29.296875 
L 19.671875 29.296875 
L 19.671875 0 
L 9.8125 0 
z
" id="DejaVuSans-80"/>
      <path d="M 9.8125 72.90625 
L 19.671875 72.90625 
L 19.671875 43.015625 
L 55.515625 43.015625 
L 55.515625 72.90625 
L 65.375 72.90625 
L 65.375 0 
L 55.515625 0 
L 55.515625 34.71875 
L 19.671875 34.71875 
L 19.671875 0 
L 9.8125 0 
z
" id="DejaVuSans-72"/>
      <path d="M -0.203125 72.90625 
L 10.40625 72.90625 
L 30.609375 42.921875 
L 50.6875 72.90625 
L 61.28125 72.90625 
L 35.5 34.71875 
L 35.5 0 
L 25.59375 0 
L 25.59375 34.71875 
z
" id="DejaVuSans-89"/>
     </defs>
     <g transform="translate(369.57375 83.03625)scale(0.24 -0.24)">
      <use xlink:href="#DejaVuSans-76"/>
      <use x="55.697266" xlink:href="#DejaVuSans-111"/>
      <use x="116.878906" xlink:href="#DejaVuSans-82"/>
      <use x="186.330078" xlink:href="#DejaVuSans-97"/>
      <use x="247.609375" xlink:href="#DejaVuSans-80"/>
      <use x="307.912109" xlink:href="#DejaVuSans-72"/>
      <use x="383.107422" xlink:href="#DejaVuSans-89"/>
     </g>
    </g>
    <g id="line2d_28">
     <path d="M 302.37375 109.86375 
L 350.37375 109.86375 
" style="fill:none;stroke:#ffa500;stroke-dasharray:14.8,6.4;stroke-dashoffset:0;stroke-width:4;"/>
    </g>
    <g id="line2d_29">
     <g>
      <use style="fill:#f57c00;stroke:#ffa500;stroke-linejoin:miter;stroke-width:3;" x="326.37375" xlink:href="#m0ad854ac7e" y="109.86375"/>
     </g>
    </g>
    <g id="text_15">
     <!-- NeLoRa -->
     <defs>
      <path d="M 56.203125 29.59375 
L 56.203125 25.203125 
L 14.890625 25.203125 
Q 15.484375 15.921875 20.484375 11.0625 
Q 25.484375 6.203125 34.421875 6.203125 
Q 39.59375 6.203125 44.453125 7.46875 
Q 49.3125 8.734375 54.109375 11.28125 
L 54.109375 2.78125 
Q 49.265625 0.734375 44.1875 -0.34375 
Q 39.109375 -1.421875 33.890625 -1.421875 
Q 20.796875 -1.421875 13.15625 6.1875 
Q 5.515625 13.8125 5.515625 26.8125 
Q 5.515625 40.234375 12.765625 48.109375 
Q 20.015625 56 32.328125 56 
Q 43.359375 56 49.78125 48.890625 
Q 56.203125 41.796875 56.203125 29.59375 
z
M 47.21875 32.234375 
Q 47.125 39.59375 43.09375 43.984375 
Q 39.0625 48.390625 32.421875 48.390625 
Q 24.90625 48.390625 20.390625 44.140625 
Q 15.875 39.890625 15.1875 32.171875 
z
" id="DejaVuSans-101"/>
     </defs>
     <g transform="translate(369.57375 118.26375)scale(0.24 -0.24)">
      <use xlink:href="#DejaVuSans-78"/>
      <use x="74.804688" xlink:href="#DejaVuSans-101"/>
      <use x="136.328125" xlink:href="#DejaVuSans-76"/>
      <use x="192.025391" xlink:href="#DejaVuSans-111"/>
      <use x="253.207031" xlink:href="#DejaVuSans-82"/>
      <use x="322.658203" xlink:href="#DejaVuSans-97"/>
     </g>
    </g>
    <g id="line2d_30">
     <path d="M 302.37375 145.09125 
L 350.37375 145.09125 
" style="fill:none;stroke:#ff8c00;stroke-dasharray:14.8,6.4;stroke-dashoffset:0;stroke-width:4;"/>
    </g>
    <g id="line2d_31">
     <g>
      <use style="fill:#f57c00;stroke:#ff8c00;stroke-linejoin:miter;stroke-width:3;" x="326.37375" xlink:href="#m0d08d1c67a" y="145.09125"/>
     </g>
    </g>
    <g id="text_16">
     <!-- NELoRa$^{+}$ -->
     <defs>
      <path d="M 46 62.703125 
L 46 35.5 
L 73.1875 35.5 
L 73.1875 27.203125 
L 46 27.203125 
L 46 0 
L 37.796875 0 
L 37.796875 27.203125 
L 10.59375 27.203125 
L 10.59375 35.5 
L 37.796875 35.5 
L 37.796875 62.703125 
z
" id="DejaVuSans-43"/>
     </defs>
     <g transform="translate(369.57375 153.49125)scale(0.24 -0.24)">
      <use transform="translate(0 0.826562)" xlink:href="#DejaVuSans-78"/>
      <use transform="translate(74.804688 0.826562)" xlink:href="#DejaVuSans-69"/>
      <use transform="translate(137.988281 0.826562)" xlink:href="#DejaVuSans-76"/>
      <use transform="translate(193.701172 0.826562)" xlink:href="#DejaVuSans-111"/>
      <use transform="translate(254.882812 0.826562)" xlink:href="#DejaVuSans-82"/>
      <use transform="translate(324.365234 0.826562)" xlink:href="#DejaVuSans-97"/>
      <use transform="translate(386.601562 39.107812)scale(0.7)" xlink:href="#DejaVuSans-43"/>
     </g>
    </g>
    <g id="line2d_32">
     <path d="M 302.37375 180.31875 
L 350.37375 180.31875 
" style="fill:none;stroke:#d32f2f;stroke-linecap:square;stroke-width:4;"/>
    </g>
    <g id="line2d_33">
     <g>
      <use style="fill:#ffcdd2;stroke:#d32f2f;stroke-width:3;" x="326.37375" xlink:href="#m067ecbfbf4" y="180.31875"/>
     </g>
    </g>
    <g id="text_17">
     <!-- SAM-Mixer -->
     <defs>
      <path d="M 34.1875 63.1875 
L 20.796875 26.90625 
L 47.609375 26.90625 
z
M 28.609375 72.90625 
L 39.796875 72.90625 
L 67.578125 0 
L 57.328125 0 
L 50.6875 18.703125 
L 17.828125 18.703125 
L 11.1875 0 
L 0.78125 0 
z
" id="DejaVuSans-65"/>
      <path d="M 9.8125 72.90625 
L 24.515625 72.90625 
L 43.109375 23.296875 
L 61.8125 72.90625 
L 76.515625 72.90625 
L 76.515625 0 
L 66.890625 0 
L 66.890625 64.015625 
L 48.09375 14.015625 
L 38.1875 14.015625 
L 19.390625 64.015625 
L 19.390625 0 
L 9.8125 0 
z
" id="DejaVuSans-77"/>
      <path d="M 4.890625 31.390625 
L 31.203125 31.390625 
L 31.203125 23.390625 
L 4.890625 23.390625 
z
" id="DejaVuSans-45"/>
      <path d="M 9.421875 54.6875 
L 18.40625 54.6875 
L 18.40625 0 
L 9.421875 0 
z
M 9.421875 75.984375 
L 18.40625 75.984375 
L 18.40625 64.59375 
L 9.421875 64.59375 
z
" id="DejaVuSans-105"/>
      <path d="M 54.890625 54.6875 
L 35.109375 28.078125 
L 55.90625 0 
L 45.3125 0 
L 29.390625 21.484375 
L 13.484375 0 
L 2.875 0 
L 24.125 28.609375 
L 4.6875 54.6875 
L 15.28125 54.6875 
L 29.78125 35.203125 
L 44.28125 54.6875 
z
" id="DejaVuSans-120"/>
      <path d="M 41.109375 46.296875 
Q 39.59375 47.171875 37.8125 47.578125 
Q 36.03125 48 33.890625 48 
Q 26.265625 48 22.1875 43.046875 
Q 18.109375 38.09375 18.109375 28.8125 
L 18.109375 0 
L 9.078125 0 
L 9.078125 54.6875 
L 18.109375 54.6875 
L 18.109375 46.1875 
Q 20.953125 51.171875 25.484375 53.578125 
Q 30.03125 56 36.53125 56 
Q 37.453125 56 38.578125 55.875 
Q 39.703125 55.765625 41.0625 55.515625 
z
" id="DejaVuSans-114"/>
     </defs>
     <g transform="translate(369.57375 188.71875)scale(0.24 -0.24)">
      <use xlink:href="#DejaVuSans-83"/>
      <use x="63.492188" xlink:href="#DejaVuSans-65"/>
      <use x="131.900391" xlink:href="#DejaVuSans-77"/>
      <use x="218.179688" xlink:href="#DejaVuSans-45"/>
      <use x="254.263672" xlink:href="#DejaVuSans-77"/>
      <use x="340.542969" xlink:href="#DejaVuSans-105"/>
      <use x="368.326172" xlink:href="#DejaVuSans-120"/>
      <use x="427.458984" xlink:href="#DejaVuSans-101"/>
      <use x="488.982422" xlink:href="#DejaVuSans-114"/>
     </g>
    </g>
   </g>
   <g id="patch_8">
    <path clip-path="url(#p2b9ca64ab4)" d="M 199.454248 289.114286 
Q 190.297143 289.114286 181.140038 289.114286 
" style="fill:none;stroke:#000000;stroke-linecap:round;stroke-width:2;"/>
    <path clip-path="url(#p2b9ca64ab4)" d="M 191.454248 285.114286 
L 199.454248 289.114286 
L 191.454248 293.114286 
L 191.454248 285.114286 
z
" style="stroke:#000000;stroke-linecap:round;stroke-width:2;"/>
    <path clip-path="url(#p2b9ca64ab4)" d="M 189.140038 293.114286 
L 181.140038 289.114286 
L 189.140038 285.114286 
L 189.140038 293.114286 
z
" style="stroke:#000000;stroke-linecap:round;stroke-width:2;"/>
   </g>
  </g>
 </g>
 <defs>
  <clipPath id="p2b9ca64ab4">
   <rect height="271.8" width="446.4" x="72" y="43.2"/>
  </clipPath>
 </defs>
</svg>
